<svg width="69" height="26" viewBox="0 0 69 26" fill="none" xmlns="http://www.w3.org/2000/svg">
<path fill-rule="evenodd" clip-rule="evenodd" d="M8.01479 0.0675895C7.57959 0.118987 7.19913 0.185468 7.16927 0.215327C7.13941 0.245185 7.13568 0.323564 7.16103 0.389579C7.19306 0.472934 7.31312 0.509557 7.55463 0.509557C8.03587 0.509557 10.0177 0.858528 11.1274 1.13861C16.9722 2.61396 20.7416 5.72398 20.7416 9.07093C20.7416 10.256 20.233 11.2468 19.399 11.6864C19.0019 11.8957 18.9624 11.9006 17.7674 11.8919C16.3623 11.8815 16.2764 11.9302 16.9898 12.3326C17.9103 12.8518 19.1539 13.9413 19.9807 14.9528C20.0943 15.0918 20.23 15.2055 20.2823 15.2055C20.4432 15.2055 21.1912 14.5856 21.5849 14.1257C22.3237 13.2632 22.7288 12.5249 23.0408 11.4732C23.1599 11.0718 23.1892 10.7437 23.1833 9.87921C23.1769 8.93734 23.1481 8.69863 22.9693 8.10815C21.7739 4.15929 17.4697 1.00836 12.1106 0.159031C11.0632 -0.00697887 9.03006 -0.0523887 8.01479 0.0675895ZM6.7843 10.185C5.84609 10.3922 5.34246 10.5571 4.55331 10.9154C1.21803 12.4298 -0.590899 15.832 0.174147 19.1517C0.245605 19.4618 0.333625 19.7154 0.369627 19.7154C0.405706 19.7154 0.545823 19.6223 0.680964 19.5086C1.3838 18.9172 3.2816 17.995 4.35939 17.7213C4.62391 17.6541 4.85034 17.59 4.86247 17.579C4.87468 17.5678 4.91869 17.3471 4.96037 17.0884C5.12739 16.0514 5.78326 14.9027 6.48354 14.4209C7.11469 13.9866 7.4925 13.8729 8.45606 13.8273C10.7001 13.7209 13.5601 14.3814 15.244 15.3947C18.463 17.3321 21.3946 20.2696 24.1531 24.3223C24.6671 25.0774 25.0182 25.4965 25.0182 25.355C25.0182 25.1639 24.4705 23.4961 24.1213 22.6236C22.6107 18.8496 20.048 15.2215 17.3981 13.1054C16.018 12.0034 14.1866 11.0196 12.6064 10.5315C11.353 10.1444 10.7941 10.062 9.19475 10.0286C7.76488 9.9988 7.57073 10.0114 6.7843 10.185Z" fill="url(#paint0_linear_986_18821)"/>
<path d="M9.54659 9.41383C9.49457 9.38171 9.46674 8.48409 9.46674 6.84195V4.31946H11.6828H13.8989V7.31308L13.8405 10.3058C13.8085 10.3054 13.6074 10.252 13.3938 10.1872L10.4413 9.57012C9.99315 9.51126 9.59052 9.44096 9.54659 9.41383Z" fill="url(#paint1_linear_986_18821)"/>
<path d="M9.54449 20.4928V17.4486V14.4043L10.2644 14.4517C10.9495 14.4966 12.7608 14.8402 13.5101 15.0673L13.86 15.1732L13.8804 17.8331L13.9009 20.4928H11.7227H9.54449Z" fill="url(#paint2_linear_986_18821)"/>
<path d="M27.616 18L25.632 12.4H26.896L27.912 15.312C27.9547 15.4187 27.9973 15.544 28.04 15.688C28.0827 15.832 28.1253 15.9813 28.168 16.136C28.216 16.2907 28.256 16.4373 28.288 16.576C28.3253 16.7147 28.3547 16.8373 28.376 16.944L28.064 16.936C28.1013 16.7973 28.1467 16.6373 28.2 16.456C28.2533 16.2747 28.3173 16.0853 28.392 15.888C28.4667 15.6907 28.544 15.4987 28.624 15.312L29.528 13.208H30.576L31.464 15.296C31.544 15.4773 31.6187 15.6667 31.688 15.864C31.7627 16.0613 31.8293 16.248 31.888 16.424C31.952 16.6 31.9947 16.7573 32.016 16.896L31.728 16.928C31.744 16.8427 31.7627 16.7467 31.784 16.64C31.8107 16.528 31.84 16.4133 31.872 16.296C31.904 16.1733 31.936 16.0507 31.968 15.928C32.0053 15.8053 32.0427 15.688 32.08 15.576C32.1173 15.4587 32.1547 15.3547 32.192 15.264L33.344 12.4H34.56L32.32 18H31.432L29.904 14.424L30.112 14.44L28.616 18H27.616ZM39.6443 18.08C39.1323 18.08 38.6629 18.008 38.2363 17.864C37.8149 17.7147 37.4469 17.5093 37.1323 17.248C36.8176 16.9813 36.5749 16.672 36.4043 16.32C36.2389 15.968 36.1562 15.5893 36.1562 15.184C36.1562 14.7787 36.2416 14.4 36.4123 14.048C36.5829 13.696 36.8229 13.3893 37.1323 13.128C37.4469 12.8613 37.8149 12.656 38.2363 12.512C38.6629 12.3627 39.1323 12.288 39.6443 12.288C40.1563 12.288 40.6229 12.3627 41.0443 12.512C41.4709 12.656 41.8389 12.8613 42.1483 13.128C42.4629 13.3893 42.7056 13.696 42.8763 14.048C43.0469 14.4 43.1323 14.7787 43.1323 15.184C43.1323 15.5893 43.0469 15.968 42.8763 16.32C42.7056 16.672 42.4629 16.9813 42.1483 17.248C41.8389 17.5093 41.4709 17.7147 41.0443 17.864C40.6229 18.008 40.1563 18.08 39.6443 18.08ZM39.6443 16.944C39.9749 16.944 40.2789 16.9013 40.5563 16.816C40.8336 16.7253 41.0736 16.6 41.2763 16.44C41.4789 16.28 41.6363 16.0933 41.7483 15.88C41.8603 15.6667 41.9163 15.4347 41.9163 15.184C41.9163 14.9333 41.8603 14.7013 41.7483 14.488C41.6363 14.2747 41.4789 14.0907 41.2763 13.936C41.0736 13.776 40.8336 13.6507 40.5563 13.56C40.2789 13.4693 39.9749 13.424 39.6443 13.424C39.3136 13.424 39.0096 13.4693 38.7323 13.56C38.4549 13.6507 38.2123 13.776 38.0043 13.936C37.8016 14.0907 37.6469 14.2747 37.5403 14.488C37.4336 14.7013 37.3803 14.9333 37.3803 15.184C37.3803 15.4347 37.4336 15.6667 37.5403 15.88C37.6469 16.0933 37.8016 16.28 38.0043 16.44C38.2123 16.6 38.4549 16.7253 38.7323 16.816C39.0096 16.9013 39.3136 16.944 39.6443 16.944ZM45.5328 18V12.4H48.7888C49.1995 12.4 49.5541 12.4747 49.8528 12.624C50.1568 12.768 50.3915 12.9733 50.5568 13.24C50.7221 13.5067 50.8048 13.816 50.8048 14.168C50.8048 14.52 50.7115 14.8373 50.5248 15.12C50.3435 15.3973 50.0955 15.6187 49.7808 15.784C49.4715 15.9493 49.1248 16.032 48.7408 16.032H46.6928V18H45.5328ZM49.7168 18L47.8128 15.472L49.0768 15.272L51.1408 18.008L49.7168 18ZM46.6928 15.056H48.6048C48.7808 15.056 48.9408 15.0213 49.0848 14.952C49.2341 14.8773 49.3515 14.776 49.4368 14.648C49.5275 14.52 49.5728 14.376 49.5728 14.216C49.5728 14.0613 49.5275 13.9253 49.4368 13.808C49.3515 13.6907 49.2341 13.6 49.0848 13.536C48.9355 13.472 48.7728 13.44 48.5968 13.44H46.6928V15.056ZM53.6578 18V12.4H54.8578V16.92H58.5138V18H53.6578ZM60.9 18V12.4H63.836C64.3587 12.4 64.82 12.4747 65.22 12.624C65.6253 12.7733 65.9667 12.9787 66.244 13.24C66.5213 13.5013 66.7293 13.8 66.868 14.136C67.012 14.472 67.084 14.8267 67.084 15.2C67.084 15.5787 67.012 15.9387 66.868 16.28C66.7293 16.616 66.5213 16.9147 66.244 17.176C65.9667 17.432 65.6253 17.6347 65.22 17.784C64.82 17.928 64.3587 18 63.836 18H60.9ZM62.1 17.128L61.972 16.92H63.796C64.1533 16.92 64.46 16.8747 64.716 16.784C64.972 16.688 65.1827 16.56 65.348 16.4C65.5133 16.2347 65.6333 16.0507 65.708 15.848C65.788 15.64 65.828 15.424 65.828 15.2C65.828 14.976 65.788 14.7627 65.708 14.56C65.6333 14.3573 65.5133 14.176 65.348 14.016C65.1827 13.8507 64.972 13.72 64.716 13.624C64.46 13.528 64.1533 13.48 63.796 13.48H61.948L62.1 13.288V17.128Z" fill="black"/>
<defs>
<linearGradient id="paint0_linear_986_18821" x1="33.1097" y1="0" x2="33.1097" y2="25.3823" gradientUnits="userSpaceOnUse">
<stop stop-color="#ADD93F"/>
<stop offset="1" stop-color="#8AC200"/>
</linearGradient>
<linearGradient id="paint1_linear_986_18821" x1="11.6838" y1="4.31946" x2="11.6838" y2="20.4928" gradientUnits="userSpaceOnUse">
<stop stop-color="#0C5A86"/>
<stop offset="1" stop-color="#3589B9"/>
</linearGradient>
<linearGradient id="paint2_linear_986_18821" x1="11.6838" y1="4.31946" x2="11.6838" y2="20.4928" gradientUnits="userSpaceOnUse">
<stop stop-color="#0C5A86"/>
<stop offset="1" stop-color="#3589B9"/>
</linearGradient>
</defs>
</svg>
